<svg class="svg-icon" style="width: 1em; height: 1em;vertical-align: middle;fill: currentColor;overflow: hidden;" viewBox="0 0 1024 1024" version="1.1" xmlns="http://www.w3.org/2000/svg"><path d="M816.469333 626.005333h-19.114666c-23.210667 0-41.642667-18.432-41.642667-41.642666v-150.186667c0-23.210667 18.432-41.642667 41.642667-41.642667h19.114666c38.912 0 70.314667 31.402667 70.314667 70.314667v92.842667c-0.682667 38.912-32.085333 70.314667-70.314667 70.314666zM207.530667 392.533333h19.114666c23.210667 0 41.642667 18.432 41.642667 41.642667v150.186667c0 23.210667-18.432 41.642667-41.642667 41.642666h-19.114666c-38.912 0-70.314667-31.402667-70.314667-70.314666V462.848c0.682667-38.229333 32.085333-70.314667 70.314667-70.314667z" fill="#FFE55C" /><path d="M600.746667 497.664c-11.605333 0-20.48-8.874667-20.48-20.48v-38.912c0-11.605333 8.874667-20.48 20.48-20.48s20.48 8.874667 20.48 20.48v38.912c0 10.922667-8.874667 20.48-20.48 20.48zM423.936 497.664c-11.605333 0-20.48-8.874667-20.48-20.48v-38.912c0-11.605333 8.874667-20.48 20.48-20.48s20.48 8.874667 20.48 20.48v38.912c0 10.922667-9.557333 20.48-20.48 20.48zM511.317333 631.466667c-40.277333 0-77.824-17.749333-103.765333-49.152-7.509333-8.874667-6.144-21.845333 2.730667-28.672 8.874667-7.509333 21.845333-6.144 28.672 2.730666 17.749333 21.845333 44.373333 34.133333 71.68 34.133334s53.930667-12.288 71.68-34.133334c7.509333-8.874667 19.797333-10.24 28.672-2.730666 8.874667 7.509333 10.24 19.797333 2.730666 28.672-24.576 30.72-62.122667 49.152-102.4 49.152zM511.317333 839.68c-11.605333 0-20.48-8.874667-20.48-20.48s8.874667-20.48 20.48-20.48c113.322667 0 216.405333-66.901333 262.144-170.666667 4.778667-10.24 16.384-15.018667 27.306667-10.24 10.24 4.778667 15.018667 16.384 10.24 27.306667-52.565333 118.101333-169.984 194.56-299.690667 194.56zM230.058667 408.234667c-2.730667 0-5.461333-0.682667-8.192-2.048-10.24-4.778667-15.018667-16.384-10.24-27.306667C264.192 260.778667 381.610667 184.32 511.317333 184.32s247.125333 76.458667 299.690667 194.56c4.778667 10.24 0 22.528-10.24 27.306667-10.24 4.778667-22.528 0-27.306667-10.24-45.738667-103.765333-148.821333-170.666667-262.144-170.666667-113.322667 0-216.405333 66.901333-262.144 170.666667-3.413333 7.509333-10.922667 12.288-19.114666 12.288z" fill="#4D4D4D" /><path d="M816.469333 646.485333h-19.114666c-34.133333 0-62.122667-27.989333-62.122667-62.122666v-150.186667c0-34.133333 27.989333-62.122667 62.122667-62.122667h19.114666c49.834667 0 90.794667 40.96 90.794667 90.794667v92.842667c-0.682667 49.834667-40.96 90.794667-90.794667 90.794666z m-19.797333-233.472c-11.605333 0-21.162667 9.557333-21.162667 21.162667v150.186667c0 11.605333 9.557333 21.162667 21.162667 21.162666h19.114667c27.306667 0 49.834667-22.528 49.834666-49.834666V462.848c0-27.306667-22.528-49.834667-49.834666-49.834667h-19.114667z" fill="#4D4D4D" /><path d="M227.328 646.485333h-19.114667c-49.834667 0-90.794667-40.96-90.794666-90.794666V462.848c0-49.834667 40.96-90.794667 90.794666-90.794667h19.114667c34.133333 0 62.122667 27.989333 62.122667 62.122667v150.186667c0 34.133333-27.989333 62.122667-62.122667 62.122666z m-19.797333-233.472c-27.306667 0-49.834667 22.528-49.834667 49.834667v92.842667c0 27.306667 22.528 49.834667 49.834667 49.834666h19.114666c11.605333 0 21.162667-9.557333 21.162667-21.162666v-150.186667c0-11.605333-9.557333-21.162667-21.162667-21.162667h-19.114666z" fill="#4D4D4D" /></svg>